#N canvas 294 318 450 300 12;
#X obj 94 45 tgl 15 0 empty empty empty 17 7 0 10 -262144 -1 -1 0 1
;
#X obj 144 133 *~;
#X obj 162 94 expr 1 - $f1;
#X obj 196 133 *~;
#X obj 94 18 inlet;
#X obj 144 18 inlet~;
#X obj 196 18 inlet~;
#X obj 144 240 outlet~;
#X connect 0 0 2 0;
#X connect 0 0 3 1;
#X connect 1 0 7 0;
#X connect 2 0 1 1;
#X connect 3 0 7 0;
#X connect 4 0 0 0;
#X connect 5 0 1 0;
#X connect 6 0 3 0;
