#N canvas 249 367 235 250 12;
#X obj 26 106 float;
#X obj 71 106 + 1;
#X msg 58 77 0;
#X obj 78 39 inlet;
#X obj 136 39 inlet;
#X obj 26 180 outlet;
#X text 77 20 Max;
#X text 134 19 Reset;
#X obj 26 39 inlet;
#X text 22 20 Trig;
#X obj 26 147 mod 4;
#X connect 0 0 1 0;
#X connect 0 0 10 0;
#X connect 1 0 0 1;
#X connect 2 0 0 1;
#X connect 3 0 10 1;
#X connect 4 0 2 0;
#X connect 8 0 0 0;
#X connect 10 0 5 0;
