#N canvas 0 23 208 401 12;
#X text 18 13 Carrier;
#X text 80 14 Ratio;
#X text 140 15 Index;
#X obj 142 37 inlet;
#X obj 82 37 inlet;
#X obj 21 36 inlet;
#X obj 124 159 *~;
#X obj 64 213 *~;
#X obj 64 102 *~;
#X obj 64 159 osc~;
#X obj 21 295 osc~;
#X obj 21 267 +~;
#X obj 21 357 outlet~;
#X connect 3 0 6 1;
#X connect 4 0 8 1;
#X connect 5 0 8 0;
#X connect 5 0 11 0;
#X connect 6 0 7 1;
#X connect 7 0 11 1;
#X connect 8 0 9 0;
#X connect 8 0 6 0;
#X connect 9 0 7 0;
#X connect 10 0 12 0;
#X connect 11 0 10 0;
