#N canvas 822 23 204 294 12;
#X obj 38 185 line 0 20;
#X floatatom 38 132 5 0 0 0 - - -;
#X obj 38 158 pack f f;
#X floatatom 91 131 5 0 0 0 - - -;
#X msg 91 106 1000;
#X obj 91 79 loadbang;
#X obj 38 245 outlet;
#X obj 38 28 inlet;
#X obj 114 29 inlet;
#X connect 0 0 6 0;
#X connect 1 0 2 0;
#X connect 2 0 0 0;
#X connect 3 0 2 1;
#X connect 4 0 3 0;
#X connect 5 0 4 0;
#X connect 7 0 1 0;
#X connect 8 0 3 0;
