#N canvas 413 39 595 693 12;
#X obj 294 293 vline~;
#X obj 81 357 *~;
#X obj 81 164 phasor~ 200;
#X obj 80 103 mtof;
#X obj 81 209 *~ 2;
#X obj 81 232 -~ 1;
#X obj 294 143 bng 15 250 50 0 empty empty empty 17 7 0 10 -262144
-1 -1;
#X msg 183 139 0.5;
#X obj 183 116 loadbang;
#X obj 81 187 expr~ $v1 > $f2;
#X text 282 5 Pulse Width;
#X text 185 46 Note in midi;
#X text 78 5 Envellope trig;
#X obj 294 506 +~ 200;
#X obj 294 482 *~ 500;
#X floatatom 141 479 5 0 0 0 - - -;
#X obj 271 530 vcf~ 12;
#X obj 189 615 +~;
#X msg 294 168 loadbang;
#X msg 294 269 1 20 \, 0.5 50 20 \, 0 \$1 200;
#X msg 294 216 set \$1;
#X msg 294 244 40;
#X floatatom 359 195 5 0 0 0 - - -;
#X text 372 46 Envellope decay;
#X obj 189 660 outlet~;
#X obj 81 26 inlet;
#X obj 187 25 inlet;
#X obj 285 25 inlet;
#X obj 375 26 inlet;
#X obj 183 164 clip 0.01 0.99;
#X msg 294 192 40;
#X obj 81 503 lop~ 1000;
#X obj 81 527 *~ 0.8;
#X connect 0 0 1 1;
#X connect 0 0 14 0;
#X connect 1 0 16 0;
#X connect 1 0 31 0;
#X connect 2 0 9 0;
#X connect 3 0 2 0;
#X connect 3 0 13 1;
#X connect 4 0 5 0;
#X connect 5 0 1 0;
#X connect 6 0 21 0;
#X connect 7 0 9 1;
#X connect 8 0 7 0;
#X connect 9 0 4 0;
#X connect 13 0 16 1;
#X connect 14 0 13 0;
#X connect 15 0 31 1;
#X connect 16 0 17 1;
#X connect 17 0 24 0;
#X connect 18 0 30 0;
#X connect 19 0 0 0;
#X connect 20 0 21 0;
#X connect 21 0 19 0;
#X connect 22 0 20 0;
#X connect 25 0 6 0;
#X connect 26 0 3 0;
#X connect 27 0 29 0;
#X connect 28 0 22 0;
#X connect 29 0 9 1;
#X connect 30 0 20 0;
#X connect 31 0 32 0;
#X connect 32 0 17 0;
