#N canvas 2478 217 706 951 10;
#X obj 96 7 inlet;
#X obj 150 329 soundfiler;
#X obj 32 658 phasor~;
#X floatatom 32 601 5 0 0 0 - - -;
#X obj 32 625 sig~ 1;
#X msg 82 625 0;
#X msg 32 387 bang;
#X obj 32 513 / 16000;
#X obj 32 570 expr 1 / $f1;
#X obj 32 538 t f b;
#X obj 32 683 *~ 200000;
#X obj 32 482 t f f;
#X text 90 514 Audio file sample rate;
#X obj 305 646 snapshot~;
#X obj 305 621 metro 5;
#X obj 305 571 loadbang;
#X msg 305 596 1;
#X obj 305 727 sel 1;
#X obj 305 702 change;
#X msg 82 602 0;
#X obj 30 907 outlet~;
#X obj 316 7 inlet;
#X text 352 7 Audio file sample rate;
#X obj 358 858 outlet;
#X obj 150 237 symbol;
#X msg 358 750 stop;
#X msg 421 749 start;
#X obj 32 7 inlet;
#X obj 220 329 array define \$0-audio_output;
#X obj 32 457 array size \$0-audio_output;
#X obj 31 717 tabread4~ \$0-audio_output;
#X obj 195 260 f \$0;
#X obj 150 282 pack s f;
#X obj 195 237 loadbang;
#X msg 150 304 read -resize \$1 \$2-audio_output;
#X obj 305 677 >= 0.98;
#X obj 358 727 sel 1;
#X obj 358 702 change;
#X obj 31 827 *~;
#X obj 32 410 t b b b;
#X obj 358 677 >= 0.93;
#X obj 47 801 line~;
#X msg 47 772 1 250;
#X obj 163 190 loadbang;
#X msg 163 212 recorded/0.wav;
#X msg 89 772 0 100;
#X obj 358 832 list prepend /\$1;
#X obj 499 7 inlet;
#X text 535 7 Volume;
#X obj 123 190 t b a;
#X msg 123 377 \; \$1 normalize;
#X obj 123 353 symbol \$0-audio_output;
#X obj 500 270 cyclone/scale~ 0 1 0 1 2;
#X msg 499 219 \$1 5000;
#X obj 499 244 line~;
#X obj 31 880 *~;
#X floatatom 499 194 5 0 0 0 - - -;
#X obj 96 77 t b b;
#X obj 96 142 line~;
#X obj 31 853 *~;
#X obj 123 169 symbol;
#X obj 225 99 symbol;
#X obj 96 30 t b b a, f 22;
#X obj 32 30 delay 60;
#X msg 96 119 1 60;
#X obj 96 54 delay 20;
#X obj 96 99 delay 40;
#X msg 160 99 0 60;
#X connect 0 0 62 0;
#X connect 2 0 10 0;
#X connect 2 0 13 0;
#X connect 3 0 4 0;
#X connect 4 0 2 0;
#X connect 5 0 2 1;
#X connect 6 0 39 0;
#X connect 7 0 9 0;
#X connect 8 0 3 0;
#X connect 9 0 8 0;
#X connect 9 1 5 0;
#X connect 10 0 30 0;
#X connect 11 0 7 0;
#X connect 11 1 10 1;
#X connect 13 0 35 0;
#X connect 13 0 40 0;
#X connect 14 0 13 0;
#X connect 15 0 16 0;
#X connect 16 0 14 0;
#X connect 17 0 19 0;
#X connect 18 0 17 0;
#X connect 19 0 4 0;
#X connect 21 0 7 1;
#X connect 24 0 32 0;
#X connect 25 0 46 0;
#X connect 26 0 46 0;
#X connect 27 0 63 0;
#X connect 29 0 11 0;
#X connect 30 0 38 0;
#X connect 31 0 32 1;
#X connect 32 0 34 0;
#X connect 33 0 31 0;
#X connect 34 0 1 0;
#X connect 35 0 18 0;
#X connect 36 0 25 0;
#X connect 36 0 45 0;
#X connect 37 0 36 0;
#X connect 38 0 59 0;
#X connect 39 0 29 0;
#X connect 39 1 42 0;
#X connect 39 2 26 0;
#X connect 40 0 37 0;
#X connect 41 0 38 1;
#X connect 42 0 41 0;
#X connect 43 0 44 0;
#X connect 44 0 24 0;
#X connect 45 0 41 0;
#X connect 46 0 23 0;
#X connect 47 0 56 0;
#X connect 49 0 51 0;
#X connect 49 1 24 0;
#X connect 51 0 50 0;
#X connect 52 0 55 1;
#X connect 53 0 54 0;
#X connect 54 0 52 0;
#X connect 55 0 20 0;
#X connect 56 0 53 0;
#X connect 57 0 66 0;
#X connect 57 1 60 0;
#X connect 58 0 59 1;
#X connect 59 0 55 0;
#X connect 60 0 49 0;
#X connect 61 0 60 1;
#X connect 62 0 65 0;
#X connect 62 1 67 0;
#X connect 62 2 61 0;
#X connect 63 0 6 0;
#X connect 64 0 58 0;
#X connect 65 0 57 0;
#X connect 66 0 64 0;
#X connect 67 0 58 0;
