#N canvas 67 257 450 300 12;
#X obj 287 14 inlet;
#X obj 72 246 outlet;
#X obj 254 110 float \$1;
#X obj 238 236 f \$1;
#X msg 135 52 \$1;
#X connect 0 0 4 0;
#X connect 0 0 2 0;
#X connect 0 0 3 0;
#X connect 2 0 1 0;
#X connect 3 0 1 0;
#X connect 4 0 1 0;
