#N canvas 295 88 313 383 12;
#X obj 32 24 inlet;
#X obj 32 165 sig~;
#X obj 64 97 delay 20;
#X msg 64 126 0;
#X obj 32 210 outlet~;
#X msg 32 125 1;
#X obj 32 68 t b b;
#X connect 0 0 6 0;
#X connect 1 0 4 0;
#X connect 2 0 3 0;
#X connect 3 0 1 0;
#X connect 5 0 1 0;
#X connect 6 0 5 0;
#X connect 6 1 2 0;
